<svg aria-hidden="true" style="position: absolute; width: 0; height: 0; overflow: hidden;" version="1.1" xmlns="http://www.w3.org/2000/svg" xmlns:xlink="http://www.w3.org/1999/xlink">
<defs>
<symbol id="icon-Traling-Icons-1-1" viewBox="0 0 186 32">
<path fill="#4d5ae5" style="fill: var(--color1, #4d5ae5)" d="M32 16c0 0.006 0 0.013 0 0.021 0 4.412-1.791 8.405-4.686 11.293l-0 0c-2.888 2.895-6.881 4.686-11.293 4.686-0.007 0-0.015 0-0.022 0h0.001c-0.006 0-0.013 0-0.021 0-4.412 0-8.405-1.791-11.293-4.686l-0-0c-2.895-2.888-4.686-6.881-4.686-11.293 0-0.007 0-0.014 0-0.021v0.001c0-0.006 0-0.013 0-0.021 0-4.412 1.791-8.405 4.686-11.293l0-0c2.888-2.895 6.881-4.686 11.293-4.686 0.007 0 0.014 0 0.021 0h-0.001c0.006 0 0.013 0 0.021 0 4.412 0 8.405 1.791 11.293 4.686l0 0c2.895 2.888 4.686 6.881 4.686 11.293 0 0.007 0 0.015 0 0.022v-0.001z"></path>
<path fill="#f4f4fd" style="fill: var(--color2, #f4f4fd)" d="M22.387 13.363c-0.030-0.68-0.14-1.148-0.298-1.553-0.17-0.444-0.421-0.823-0.739-1.135l-0.001-0.001c-0.312-0.317-0.69-0.568-1.111-0.73l-0.022-0.007c-0.408-0.158-0.872-0.268-1.552-0.298-0.686-0.032-0.904-0.040-2.641-0.040-1.738 0-1.956 0.008-2.638 0.038-0.68 0.030-1.147 0.14-1.552 0.298-0.445 0.169-0.824 0.421-1.135 0.739l-0.001 0.001c-0.317 0.312-0.568 0.69-0.73 1.111l-0.007 0.022c-0.158 0.408-0.267 0.872-0.298 1.552-0.032 0.686-0.040 0.904-0.040 2.642s0.008 1.955 0.038 2.638c0.030 0.68 0.14 1.148 0.298 1.553 0.162 0.43 0.415 0.815 0.74 1.136 0.32 0.324 0.708 0.577 1.133 0.737 0.408 0.158 0.872 0.268 1.553 0.298 0.682 0.030 0.9 0.038 2.638 0.038s1.955-0.008 2.638-0.038c0.68-0.030 1.148-0.14 1.553-0.298 0.863-0.34 1.533-1.010 1.865-1.85l0.008-0.022c0.158-0.408 0.268-0.874 0.298-1.554 0.030-0.682 0.038-0.9 0.038-2.638s-0.002-1.956-0.032-2.638zM21.235 18.589c-0.028 0.626-0.133 0.963-0.221 1.188-0.22 0.56-0.655 0.995-1.201 1.211l-0.014 0.005c-0.225 0.087-0.565 0.192-1.187 0.219-0.675 0.030-0.878 0.038-2.586 0.038s-1.913-0.008-2.586-0.038c-0.625-0.027-0.962-0.132-1.188-0.22-0.288-0.108-0.534-0.27-0.735-0.477l-0-0c-0.207-0.202-0.369-0.447-0.473-0.721l-0.005-0.014c-0.088-0.225-0.192-0.565-0.22-1.187-0.030-0.675-0.038-0.878-0.038-2.586s0.008-1.913 0.038-2.586c0.028-0.625 0.133-0.963 0.22-1.188 0.102-0.278 0.266-0.53 0.48-0.735 0.208-0.212 0.458-0.375 0.736-0.478 0.224-0.088 0.565-0.192 1.187-0.22 0.675-0.030 0.878-0.038 2.586-0.038 1.71 0 1.912 0.008 2.586 0.038 0.625 0.028 0.962 0.133 1.188 0.22 0.277 0.102 0.53 0.266 0.734 0.478 0.213 0.208 0.376 0.458 0.478 0.736 0.088 0.224 0.193 0.565 0.221 1.187 0.030 0.675 0.037 0.878 0.037 2.586s-0.007 1.908-0.037 2.583z"></path>
<path fill="#f4f4fd" style="fill: var(--color2, #f4f4fd)" d="M16.024 12.713c-1.785 0.041-3.216 1.497-3.216 3.288s1.431 3.247 3.213 3.288l0.004 0c1.785-0.041 3.216-1.497 3.216-3.288s-1.431-3.247-3.212-3.288l-0.004-0zM16.024 18.134c-1.178 0-2.134-0.955-2.134-2.134s0.955-2.134 2.134-2.134v0c1.178 0 2.134 0.955 2.134 2.134s-0.955 2.134-2.134 2.134v0zM20.21 12.583c0 0.424-0.344 0.768-0.768 0.768s-0.768-0.344-0.768-0.768v0c0-0.424 0.344-0.768 0.768-0.768s0.768 0.344 0.768 0.768v0z"></path>
<path fill="#4d5ae5" style="fill: var(--color1, #4d5ae5)" d="M83.2 16c0 0.006 0 0.013 0 0.020 0 4.412-1.791 8.406-4.686 11.294l-0 0c-2.888 2.895-6.881 4.686-11.293 4.686-0.007 0-0.015 0-0.022 0h0.001c-0.006 0-0.013 0-0.021 0-4.412 0-8.405-1.791-11.293-4.686l-0-0c-2.895-2.888-4.686-6.881-4.686-11.293 0-0.007 0-0.015 0-0.022v0.001c0-0.006 0-0.013 0-0.021 0-4.412 1.791-8.405 4.686-11.293l0-0c2.888-2.895 6.881-4.686 11.293-4.686 0.007 0 0.015 0 0.022 0h-0.001c0.006 0 0.013 0 0.021 0 4.412 0 8.405 1.791 11.293 4.686l0 0c2.895 2.888 4.686 6.882 4.686 11.294 0 0.007 0 0.014 0 0.021v-0.001z"></path>
<path fill="#f4f4fd" style="fill: var(--color2, #f4f4fd)" d="M73.6 12.031c-0.44 0.197-0.95 0.343-1.485 0.412l-0.027 0.003c0.544-0.327 0.953-0.831 1.149-1.432l0.005-0.018c-0.479 0.289-1.037 0.509-1.63 0.63l-0.034 0.006c-0.48-0.512-1.16-0.83-1.915-0.83-1.449 0-2.624 1.175-2.624 2.624 0 0 0 0.001 0 0.001v-0c0 0.208 0.018 0.408 0.061 0.598-2.187-0.11-4.111-1.151-5.398-2.731l-0.011-0.014c-0.225 0.379-0.358 0.836-0.358 1.324 0 0.906 0.458 1.704 1.155 2.177l0.009 0.006c-0.437-0.012-0.844-0.13-1.199-0.33l0.013 0.007v0.029c0.002 1.266 0.895 2.322 2.085 2.575l0.017 0.003c-0.2 0.055-0.43 0.086-0.667 0.086-0.007 0-0.014-0-0.022-0h0.001c-0.012 0-0.027 0-0.041 0-0.161 0-0.319-0.016-0.471-0.048l0.015 0.003c0.349 1.049 1.309 1.798 2.449 1.828l0.003 0c-0.886 0.698-2.018 1.119-3.248 1.119-0.002 0-0.004 0-0.006 0h0c-0.215 0-0.422-0.010-0.628-0.036 1.13 0.738 2.515 1.178 4.002 1.178 0.008 0 0.017 0 0.025-0h-0.001c4.829 0 7.469-4 7.469-7.467 0-0.116-0.004-0.228-0.010-0.339 0.52-0.375 0.956-0.827 1.303-1.344l0.012-0.019z"></path>
<path fill="#4d5ae5" style="fill: var(--color1, #4d5ae5)" d="M134.4 16c0 0.006 0 0.013 0 0.020 0 4.412-1.791 8.406-4.686 11.293l-0 0c-2.888 2.895-6.881 4.686-11.293 4.686-0.007 0-0.015 0-0.022 0h0.001c-0.006 0-0.014 0-0.021 0-4.412 0-8.405-1.791-11.292-4.686l-0-0c-2.895-2.888-4.686-6.882-4.686-11.294 0-0.007 0-0.014 0-0.021v0.001c0-0.006 0-0.013 0-0.020 0-4.412 1.791-8.406 4.686-11.293l0-0c2.888-2.895 6.881-4.686 11.293-4.686 0.007 0 0.015 0 0.022 0h-0.001c0.006 0 0.014 0 0.021 0 4.412 0 8.405 1.791 11.292 4.686l0 0c2.895 2.888 4.686 6.882 4.686 11.294 0 0.007 0 0.014 0 0.021v-0.001z"></path>
<path fill="#f4f4fd" style="fill: var(--color2, #f4f4fd)" d="M120.532 11.726h1.168v-2.035c-0.495-0.058-1.068-0.091-1.649-0.091-0.019 0-0.037 0-0.056 0h0.003c-1.685 0-2.838 1.060-2.838 3.008v1.792h-1.859v2.275h1.859v5.725h2.279v-5.724h1.784l0.283-2.275h-2.068v-1.568c0.001-0.658 0.178-1.107 1.094-1.107z"></path>
<path fill="#4d5ae5" style="fill: var(--color1, #4d5ae5)" d="M185.6 16c0 0.006 0 0.013 0 0.020 0 4.412-1.791 8.406-4.686 11.293l-0 0c-2.888 2.895-6.881 4.686-11.293 4.686-0.007 0-0.015 0-0.022 0h0.001c-0.006 0-0.014 0-0.021 0-4.412 0-8.405-1.791-11.292-4.686l-0-0c-2.895-2.888-4.686-6.882-4.686-11.294 0-0.007 0-0.014 0-0.021v0.001c0-0.006 0-0.013 0-0.020 0-4.412 1.791-8.406 4.686-11.293l0-0c2.888-2.895 6.881-4.686 11.293-4.686 0.007 0 0.015 0 0.022 0h-0.001c0.006 0 0.014 0 0.021 0 4.412 0 8.405 1.791 11.292 4.686l0 0c2.895 2.888 4.686 6.882 4.686 11.294 0 0.007 0 0.014 0 0.021v-0.001z"></path>
<path fill="#f4f4fd" style="fill: var(--color2, #f4f4fd)" d="M175.997 22.4h0.003v-4.696c0-2.296-0.494-4.066-3.179-4.066-1.29 0-2.157 0.709-2.51 1.38h-0.038v-1.166h-2.546v8.547h2.651v-4.232c0-1.114 0.211-2.192 1.59-2.192 1.36 0 1.38 1.272 1.38 2.264v4.16h2.648zM163.411 13.854h2.654v8.546h-2.654v-8.546zM164.737 9.6c-0.848 0-1.537 0.688-1.537 1.537s0.689 1.552 1.537 1.552c0.849 0 1.538-0.704 1.538-1.552-0.001-0.848-0.689-1.536-1.537-1.537h-0z"></path>
</symbol>
<symbol id="icon-facebook2" viewBox="0 0 32 32">
<path d="M29 0h-26c-1.65 0-3 1.35-3 3v26c0 1.65 1.35 3 3 3h13v-14h-4v-4h4v-2c0-3.306 2.694-6 6-6h4v4h-4c-1.1 0-2 0.9-2 2v2h6l-1 4h-5v14h9c1.65 0 3-1.35 3-3v-26c0-1.65-1.35-3-3-3z"></path>
</symbol>
<symbol id="icon-instagram" viewBox="0 0 32 32">
<path d="M16 2.881c4.275 0 4.781 0.019 6.462 0.094 1.563 0.069 2.406 0.331 2.969 0.55 0.744 0.288 1.281 0.638 1.837 1.194 0.563 0.563 0.906 1.094 1.2 1.838 0.219 0.563 0.481 1.412 0.55 2.969 0.075 1.688 0.094 2.194 0.094 6.463s-0.019 4.781-0.094 6.463c-0.069 1.563-0.331 2.406-0.55 2.969-0.288 0.744-0.637 1.281-1.194 1.837-0.563 0.563-1.094 0.906-1.837 1.2-0.563 0.219-1.413 0.481-2.969 0.55-1.688 0.075-2.194 0.094-6.463 0.094s-4.781-0.019-6.463-0.094c-1.563-0.069-2.406-0.331-2.969-0.55-0.744-0.288-1.281-0.637-1.838-1.194-0.563-0.563-0.906-1.094-1.2-1.837-0.219-0.563-0.481-1.413-0.55-2.969-0.075-1.688-0.094-2.194-0.094-6.463s0.019-4.781 0.094-6.463c0.069-1.563 0.331-2.406 0.55-2.969 0.288-0.744 0.638-1.281 1.194-1.838 0.563-0.563 1.094-0.906 1.838-1.2 0.563-0.219 1.412-0.481 2.969-0.55 1.681-0.075 2.188-0.094 6.463-0.094zM16 0c-4.344 0-4.887 0.019-6.594 0.094-1.7 0.075-2.869 0.35-3.881 0.744-1.056 0.412-1.95 0.956-2.837 1.85-0.894 0.888-1.438 1.781-1.85 2.831-0.394 1.019-0.669 2.181-0.744 3.881-0.075 1.713-0.094 2.256-0.094 6.6s0.019 4.887 0.094 6.594c0.075 1.7 0.35 2.869 0.744 3.881 0.413 1.056 0.956 1.95 1.85 2.837 0.887 0.887 1.781 1.438 2.831 1.844 1.019 0.394 2.181 0.669 3.881 0.744 1.706 0.075 2.25 0.094 6.594 0.094s4.888-0.019 6.594-0.094c1.7-0.075 2.869-0.35 3.881-0.744 1.050-0.406 1.944-0.956 2.831-1.844s1.438-1.781 1.844-2.831c0.394-1.019 0.669-2.181 0.744-3.881 0.075-1.706 0.094-2.25 0.094-6.594s-0.019-4.887-0.094-6.594c-0.075-1.7-0.35-2.869-0.744-3.881-0.394-1.063-0.938-1.956-1.831-2.844-0.887-0.887-1.781-1.438-2.831-1.844-1.019-0.394-2.181-0.669-3.881-0.744-1.712-0.081-2.256-0.1-6.6-0.1v0z"></path>
<path d="M16 7.781c-4.537 0-8.219 3.681-8.219 8.219s3.681 8.219 8.219 8.219 8.219-3.681 8.219-8.219c0-4.537-3.681-8.219-8.219-8.219zM16 21.331c-2.944 0-5.331-2.387-5.331-5.331s2.387-5.331 5.331-5.331c2.944 0 5.331 2.387 5.331 5.331s-2.387 5.331-5.331 5.331z"></path>
<path d="M26.462 7.456c0 1.060-0.859 1.919-1.919 1.919s-1.919-0.859-1.919-1.919c0-1.060 0.859-1.919 1.919-1.919s1.919 0.859 1.919 1.919z"></path>
</symbol>
<symbol id="icon-twitter" viewBox="0 0 32 32">
<path d="M32 7.075c-1.175 0.525-2.444 0.875-3.769 1.031 1.356-0.813 2.394-2.1 2.887-3.631-1.269 0.75-2.675 1.3-4.169 1.594-1.2-1.275-2.906-2.069-4.794-2.069-3.625 0-6.563 2.938-6.563 6.563 0 0.512 0.056 1.012 0.169 1.494-5.456-0.275-10.294-2.888-13.531-6.862-0.563 0.969-0.887 2.1-0.887 3.3 0 2.275 1.156 4.287 2.919 5.463-1.075-0.031-2.087-0.331-2.975-0.819 0 0.025 0 0.056 0 0.081 0 3.181 2.263 5.838 5.269 6.437-0.55 0.15-1.131 0.231-1.731 0.231-0.425 0-0.831-0.044-1.237-0.119 0.838 2.606 3.263 4.506 6.131 4.563-2.25 1.762-5.075 2.813-8.156 2.813-0.531 0-1.050-0.031-1.569-0.094 2.913 1.869 6.362 2.95 10.069 2.95 12.075 0 18.681-10.006 18.681-18.681 0-0.287-0.006-0.569-0.019-0.85 1.281-0.919 2.394-2.075 3.275-3.394z"></path>
</symbol>
<symbol id="icon-linkedin" viewBox="0 0 32 32">
<path d="M29 0h-26c-1.65 0-3 1.35-3 3v26c0 1.65 1.35 3 3 3h26c1.65 0 3-1.35 3-3v-26c0-1.65-1.35-3-3-3zM12 26h-4v-14h4v14zM10 10c-1.106 0-2-0.894-2-2s0.894-2 2-2c1.106 0 2 0.894 2 2s-0.894 2-2 2zM26 26h-4v-8c0-1.106-0.894-2-2-2s-2 0.894-2 2v8h-4v-14h4v2.481c0.825-1.131 2.087-2.481 3.5-2.481 2.488 0 4.5 2.238 4.5 5v9z"></path>
</symbol>
</defs>
</svg>
